<svg id="Layer_1" data-name="Layer 1" xmlns="http://www.w3.org/2000/svg" viewBox="0 0 80 80"><defs><style>.cls-1{fill:#c02129;}.cls-2{fill:#fff;}.cls-3{fill:#323232;}</style></defs><rect class="cls-1" x="54.36" y="18.2" width="2.22" height="43.23" transform="translate(-11.9 50.89) rotate(-45)"/><rect class="cls-1" x="2.91" y="38.7" width="43.23" height="2.22" transform="translate(-20.97 29.01) rotate(-45)"/><circle class="cls-2" cx="68.73" cy="58.72" r="10.17"/><path class="cls-1" d="M68.73,70A11.28,11.28,0,1,1,80,58.72,11.29,11.29,0,0,1,68.73,70Zm0-20.33a9.06,9.06,0,1,0,9,9A9.06,9.06,0,0,0,68.73,49.67Z"/><circle class="cls-2" cx="40.06" cy="21.28" r="10.17"/><path class="cls-1" d="M40.06,32.55A11.28,11.28,0,1,1,51.33,21.28,11.28,11.28,0,0,1,40.06,32.55Zm0-20.33a9.06,9.06,0,1,0,9.06,9.06A9.06,9.06,0,0,0,40.06,12.22Z"/><circle class="cls-2" cx="11.27" cy="58.72" r="10.17"/><path class="cls-1" d="M11.27,70A11.28,11.28,0,1,1,22.55,58.72,11.29,11.29,0,0,1,11.27,70Zm0-20.33a9.06,9.06,0,1,0,9.06,9A9.06,9.06,0,0,0,11.27,49.67Z"/><path class="cls-3" d="M62.66,67.53c0-3.91,2.72-7.08,6.07-7.08s6.06,3.17,6.06,7.08l-6.06.74Z"/><circle class="cls-3" cx="68.73" cy="56.48" r="3.85"/><path class="cls-3" d="M5.21,67.53c0-3.91,2.71-7.08,6.06-7.08s6.07,3.17,6.07,7.08l-6.07.74Z"/><circle class="cls-3" cx="11.27" cy="56.48" r="3.85"/><path class="cls-3" d="M34.17,30.2c0-3.91,2.72-7.08,6.07-7.08s6.06,3.17,6.06,7.08l-6.06.74Z"/><circle class="cls-3" cx="40.24" cy="19.16" r="3.85"/><path class="cls-1" d="M68.73,70A11.28,11.28,0,1,1,80,58.72,11.29,11.29,0,0,1,68.73,70Zm0-20.33a9.06,9.06,0,1,0,9,9A9.06,9.06,0,0,0,68.73,49.67Z"/><path class="cls-1" d="M40.06,32.55A11.28,11.28,0,1,1,51.33,21.28,11.28,11.28,0,0,1,40.06,32.55Zm0-20.33a9.06,9.06,0,1,0,9.06,9.06A9.06,9.06,0,0,0,40.06,12.22Z"/><path class="cls-1" d="M11.27,70A11.28,11.28,0,1,1,22.55,58.72,11.29,11.29,0,0,1,11.27,70Zm0-20.33a9.06,9.06,0,1,0,9.06,9A9.06,9.06,0,0,0,11.27,49.67Z"/></svg>